<mxfile host="app.diagrams.net" modified="2021-05-26T14:47:54.432Z" agent="5.0 (Macintosh; Intel Mac OS X 10_15_7) AppleWebKit/537.36 (KHTML, like Gecko) Chrome/89.0.4389.90 Safari/537.36" etag="NHfSJ9J7G-vQe-hWOfV7" version="14.6.13" type="github">
  <diagram id="pKE5zrcODypbX_Isdorv" name="Page-1">
    <mxGraphModel dx="886" dy="591" grid="1" gridSize="10" guides="1" tooltips="1" connect="1" arrows="1" fold="1" page="1" pageScale="1" pageWidth="827" pageHeight="1169" math="0" shadow="0">
      <root>
        <mxCell id="0" />
        <mxCell id="1" parent="0" />
        <mxCell id="m3Tyan2dCxRgAC7vRi2b-21" style="edgeStyle=orthogonalEdgeStyle;rounded=0;orthogonalLoop=1;jettySize=auto;html=1;" edge="1" parent="1" source="m3Tyan2dCxRgAC7vRi2b-8" target="m3Tyan2dCxRgAC7vRi2b-11">
          <mxGeometry relative="1" as="geometry" />
        </mxCell>
        <mxCell id="m3Tyan2dCxRgAC7vRi2b-8" value="Mapping Utility Preprocessor" style="rounded=1;whiteSpace=wrap;html=1;" vertex="1" parent="1">
          <mxGeometry x="200" y="170" width="180" height="110" as="geometry" />
        </mxCell>
        <mxCell id="m3Tyan2dCxRgAC7vRi2b-20" style="edgeStyle=orthogonalEdgeStyle;rounded=0;orthogonalLoop=1;jettySize=auto;html=1;entryX=0;entryY=0.75;entryDx=0;entryDy=0;" edge="1" parent="1" source="m3Tyan2dCxRgAC7vRi2b-9" target="m3Tyan2dCxRgAC7vRi2b-8">
          <mxGeometry relative="1" as="geometry" />
        </mxCell>
        <mxCell id="m3Tyan2dCxRgAC7vRi2b-9" value="input-spec.yml" style="shape=card;whiteSpace=wrap;html=1;" vertex="1" parent="1">
          <mxGeometry x="60" y="50" width="80" height="100" as="geometry" />
        </mxCell>
        <mxCell id="m3Tyan2dCxRgAC7vRi2b-19" style="edgeStyle=orthogonalEdgeStyle;rounded=0;orthogonalLoop=1;jettySize=auto;html=1;entryX=1;entryY=0.691;entryDx=0;entryDy=0;entryPerimeter=0;" edge="1" parent="1" source="m3Tyan2dCxRgAC7vRi2b-10" target="m3Tyan2dCxRgAC7vRi2b-8">
          <mxGeometry relative="1" as="geometry" />
        </mxCell>
        <mxCell id="m3Tyan2dCxRgAC7vRi2b-10" value="mapping-spec.yml" style="shape=card;whiteSpace=wrap;html=1;" vertex="1" parent="1">
          <mxGeometry x="470" y="50" width="80" height="100" as="geometry" />
        </mxCell>
        <mxCell id="m3Tyan2dCxRgAC7vRi2b-22" style="edgeStyle=orthogonalEdgeStyle;rounded=0;orthogonalLoop=1;jettySize=auto;html=1;" edge="1" parent="1" source="m3Tyan2dCxRgAC7vRi2b-11" target="m3Tyan2dCxRgAC7vRi2b-12">
          <mxGeometry relative="1" as="geometry" />
        </mxCell>
        <mxCell id="m3Tyan2dCxRgAC7vRi2b-11" value="Validates the specifications" style="rounded=1;whiteSpace=wrap;html=1;" vertex="1" parent="1">
          <mxGeometry x="200" y="320" width="180" height="70" as="geometry" />
        </mxCell>
        <mxCell id="m3Tyan2dCxRgAC7vRi2b-23" style="edgeStyle=orthogonalEdgeStyle;rounded=0;orthogonalLoop=1;jettySize=auto;html=1;" edge="1" parent="1" source="m3Tyan2dCxRgAC7vRi2b-12" target="m3Tyan2dCxRgAC7vRi2b-13">
          <mxGeometry relative="1" as="geometry" />
        </mxCell>
        <mxCell id="m3Tyan2dCxRgAC7vRi2b-32" style="edgeStyle=orthogonalEdgeStyle;rounded=0;orthogonalLoop=1;jettySize=auto;html=1;entryX=0.5;entryY=0;entryDx=0;entryDy=0;" edge="1" parent="1" source="m3Tyan2dCxRgAC7vRi2b-12" target="m3Tyan2dCxRgAC7vRi2b-31">
          <mxGeometry relative="1" as="geometry" />
        </mxCell>
        <mxCell id="m3Tyan2dCxRgAC7vRi2b-12" value="Validation Success?" style="rhombus;whiteSpace=wrap;html=1;" vertex="1" parent="1">
          <mxGeometry x="250" y="430" width="80" height="80" as="geometry" />
        </mxCell>
        <mxCell id="m3Tyan2dCxRgAC7vRi2b-25" style="edgeStyle=orthogonalEdgeStyle;rounded=0;orthogonalLoop=1;jettySize=auto;html=1;" edge="1" parent="1" source="m3Tyan2dCxRgAC7vRi2b-13" target="m3Tyan2dCxRgAC7vRi2b-14">
          <mxGeometry relative="1" as="geometry" />
        </mxCell>
        <mxCell id="m3Tyan2dCxRgAC7vRi2b-13" value="Generates temporary model schema" style="rounded=1;whiteSpace=wrap;html=1;" vertex="1" parent="1">
          <mxGeometry x="195" y="554.5" width="190" height="55.5" as="geometry" />
        </mxCell>
        <mxCell id="m3Tyan2dCxRgAC7vRi2b-26" style="edgeStyle=orthogonalEdgeStyle;rounded=0;orthogonalLoop=1;jettySize=auto;html=1;entryX=0.5;entryY=0;entryDx=0;entryDy=0;" edge="1" parent="1" source="m3Tyan2dCxRgAC7vRi2b-14" target="m3Tyan2dCxRgAC7vRi2b-16">
          <mxGeometry relative="1" as="geometry" />
        </mxCell>
        <mxCell id="m3Tyan2dCxRgAC7vRi2b-14" value="Validates with the actual model schema defined" style="rounded=1;whiteSpace=wrap;html=1;" vertex="1" parent="1">
          <mxGeometry x="195" y="650" width="190" height="60" as="geometry" />
        </mxCell>
        <mxCell id="m3Tyan2dCxRgAC7vRi2b-24" style="edgeStyle=orthogonalEdgeStyle;rounded=0;orthogonalLoop=1;jettySize=auto;html=1;entryX=0;entryY=0.5;entryDx=0;entryDy=0;" edge="1" parent="1" source="m3Tyan2dCxRgAC7vRi2b-15" target="m3Tyan2dCxRgAC7vRi2b-13">
          <mxGeometry relative="1" as="geometry" />
        </mxCell>
        <mxCell id="m3Tyan2dCxRgAC7vRi2b-15" value="model-schema.yml" style="shape=card;whiteSpace=wrap;html=1;" vertex="1" parent="1">
          <mxGeometry x="20" y="537.25" width="70" height="90" as="geometry" />
        </mxCell>
        <mxCell id="m3Tyan2dCxRgAC7vRi2b-27" style="edgeStyle=orthogonalEdgeStyle;rounded=0;orthogonalLoop=1;jettySize=auto;html=1;" edge="1" parent="1" source="m3Tyan2dCxRgAC7vRi2b-16" target="m3Tyan2dCxRgAC7vRi2b-17">
          <mxGeometry relative="1" as="geometry" />
        </mxCell>
        <mxCell id="m3Tyan2dCxRgAC7vRi2b-34" style="edgeStyle=orthogonalEdgeStyle;rounded=0;orthogonalLoop=1;jettySize=auto;html=1;entryX=0.5;entryY=1;entryDx=0;entryDy=0;" edge="1" parent="1" source="m3Tyan2dCxRgAC7vRi2b-16" target="m3Tyan2dCxRgAC7vRi2b-31">
          <mxGeometry relative="1" as="geometry" />
        </mxCell>
        <mxCell id="m3Tyan2dCxRgAC7vRi2b-16" value="Validation Success?" style="rhombus;whiteSpace=wrap;html=1;" vertex="1" parent="1">
          <mxGeometry x="250" y="750" width="80" height="80" as="geometry" />
        </mxCell>
        <mxCell id="m3Tyan2dCxRgAC7vRi2b-28" style="edgeStyle=orthogonalEdgeStyle;rounded=0;orthogonalLoop=1;jettySize=auto;html=1;" edge="1" parent="1" source="m3Tyan2dCxRgAC7vRi2b-17" target="m3Tyan2dCxRgAC7vRi2b-18">
          <mxGeometry relative="1" as="geometry" />
        </mxCell>
        <mxCell id="m3Tyan2dCxRgAC7vRi2b-17" value="Generates dynamic query" style="rounded=1;whiteSpace=wrap;html=1;" vertex="1" parent="1">
          <mxGeometry x="190" y="860" width="200" height="60" as="geometry" />
        </mxCell>
        <mxCell id="m3Tyan2dCxRgAC7vRi2b-18" value="DBUtilityOrchestrator" style="rounded=1;whiteSpace=wrap;html=1;" vertex="1" parent="1">
          <mxGeometry x="190" y="980" width="200" height="60" as="geometry" />
        </mxCell>
        <mxCell id="m3Tyan2dCxRgAC7vRi2b-29" value="Yes" style="text;html=1;align=center;verticalAlign=middle;resizable=0;points=[];autosize=1;strokeColor=none;" vertex="1" parent="1">
          <mxGeometry x="280" y="510" width="40" height="20" as="geometry" />
        </mxCell>
        <mxCell id="m3Tyan2dCxRgAC7vRi2b-30" value="Yes" style="text;html=1;align=center;verticalAlign=middle;resizable=0;points=[];autosize=1;strokeColor=none;" vertex="1" parent="1">
          <mxGeometry x="280" y="830" width="40" height="20" as="geometry" />
        </mxCell>
        <mxCell id="m3Tyan2dCxRgAC7vRi2b-31" value="Return" style="ellipse;whiteSpace=wrap;html=1;aspect=fixed;" vertex="1" parent="1">
          <mxGeometry x="680" y="640" width="80" height="80" as="geometry" />
        </mxCell>
        <mxCell id="m3Tyan2dCxRgAC7vRi2b-33" value="No" style="text;html=1;align=center;verticalAlign=middle;resizable=0;points=[];autosize=1;strokeColor=none;" vertex="1" parent="1">
          <mxGeometry x="445" y="450" width="30" height="20" as="geometry" />
        </mxCell>
        <mxCell id="m3Tyan2dCxRgAC7vRi2b-35" value="No" style="text;html=1;align=center;verticalAlign=middle;resizable=0;points=[];autosize=1;strokeColor=none;" vertex="1" parent="1">
          <mxGeometry x="525" y="770" width="30" height="20" as="geometry" />
        </mxCell>
      </root>
    </mxGraphModel>
  </diagram>
</mxfile>
